<svg width="412" height="412" viewBox="0 0 412 412" fill="none" xmlns="http://www.w3.org/2000/svg">
<line x1="206.25" y1="13" x2="206.25" y2="401" stroke="#D9D9D9" stroke-width="0.5"/>
<line x1="400" y1="207.25" x2="12" y2="207.25" stroke="#D9D9D9" stroke-width="0.5"/>
<path d="M134.525 134.132H136.019V143.348H134.525V134.132ZM135.605 138.092H138.431V139.334H135.605V138.092ZM130.025 135.176H131.609C131.609 139.28 128.747 142.232 123.959 143.528L123.383 142.34C127.595 141.188 130.025 138.83 130.025 135.842V135.176ZM124.085 135.176H130.853V136.382H124.085V135.176ZM125.777 144.122H136.019V150.188H125.777V144.122ZM134.543 145.328H127.253V148.964H134.543V145.328ZM148.635 138.344H152.307V139.586H148.635V138.344ZM151.839 134.132H153.333V143.834H151.839V134.132ZM147.987 144.32C151.335 144.32 153.405 145.454 153.405 147.362C153.405 149.288 151.335 150.386 147.987 150.386C144.621 150.386 142.551 149.288 142.551 147.362C142.551 145.454 144.621 144.32 147.987 144.32ZM147.987 145.49C145.539 145.49 144.045 146.174 144.045 147.362C144.045 148.532 145.539 149.216 147.987 149.216C150.435 149.216 151.929 148.532 151.929 147.362C151.929 146.174 150.435 145.49 147.987 145.49ZM144.099 135.77H145.323V137.084C145.323 140.09 143.487 142.664 140.787 143.672L140.013 142.484C142.425 141.602 144.099 139.424 144.099 137.084V135.77ZM144.387 135.77H145.593V137.084C145.593 139.19 147.177 141.206 149.535 142.034L148.779 143.222C146.133 142.268 144.387 139.82 144.387 137.084V135.77ZM140.463 135.32H149.157V136.544H140.463V135.32Z" fill="#6F6E6E"/>
<path d="M259.675 132.302C262.213 132.302 264.031 133.868 264.031 136.136C264.031 138.422 262.213 139.988 259.675 139.988C257.137 139.988 255.301 138.422 255.301 136.136C255.301 133.868 257.137 132.302 259.675 132.302ZM259.675 133.598C257.983 133.598 256.759 134.624 256.759 136.136C256.759 137.648 257.983 138.692 259.675 138.692C261.349 138.692 262.573 137.648 262.573 136.136C262.573 134.624 261.349 133.598 259.675 133.598ZM266.155 131.114H267.649V147.422H266.155V131.114ZM254.689 143.858L254.473 142.616C257.443 142.616 261.547 142.598 265.093 142.04L265.219 143.138C261.565 143.84 257.587 143.858 254.689 143.858ZM275.261 133.454H276.467V136.1C276.467 139.538 274.397 142.994 271.805 144.272L270.941 143.084C273.299 141.968 275.261 138.908 275.261 136.1V133.454ZM275.549 133.454H276.755V136.1C276.755 138.854 278.717 141.662 281.111 142.688L280.265 143.876C277.637 142.652 275.549 139.484 275.549 136.1V133.454ZM271.481 132.788H280.571V134.048H271.481V132.788ZM282.767 131.132H284.261V147.404H282.767V131.132Z" fill="#6F6E6E"/>
<path d="M260.703 259.454H261.909V262.1C261.909 265.538 259.839 268.994 257.247 270.272L256.383 269.084C258.741 267.968 260.703 264.908 260.703 262.1V259.454ZM260.991 259.454H262.197V262.1C262.197 264.854 264.159 267.662 266.553 268.688L265.707 269.876C263.079 268.652 260.991 265.484 260.991 262.1V259.454ZM256.923 258.788H266.013V260.048H256.923V258.788ZM268.209 257.132H269.703V273.404H268.209V257.132ZM277.189 257.906H278.431V259.49C278.431 262.568 276.595 265.214 273.841 266.258L273.085 265.07C275.551 264.17 277.189 261.92 277.189 259.49V257.906ZM277.459 257.906H278.683V259.49C278.683 261.83 280.357 263.936 282.769 264.782L282.013 265.952C279.295 264.962 277.459 262.478 277.459 259.49V257.906ZM275.425 267.752H286.297V273.404H284.785V268.976H275.425V267.752ZM284.785 257.132H286.297V266.924H284.785V257.132Z" fill="#6F6E6E"/>
<path d="M123.091 271.34H124.585V274.562H123.091V271.34ZM128.941 271.34H130.435V274.562H128.941V271.34ZM119.383 270.746H134.089V271.952H119.383V270.746ZM126.727 273.608C130.219 273.608 132.307 274.652 132.307 276.506C132.307 278.342 130.219 279.386 126.727 279.386C123.235 279.386 121.147 278.342 121.147 276.506C121.147 274.652 123.235 273.608 126.727 273.608ZM126.727 274.778C124.189 274.778 122.659 275.408 122.659 276.506C122.659 277.604 124.189 278.216 126.727 278.216C129.283 278.216 130.795 277.604 130.795 276.506C130.795 275.408 129.283 274.778 126.727 274.778ZM126.745 263.456C130.273 263.456 132.469 264.59 132.469 266.498C132.469 268.406 130.273 269.54 126.745 269.54C123.199 269.54 121.021 268.406 121.021 266.498C121.021 264.59 123.199 263.456 126.745 263.456ZM126.745 264.626C124.153 264.626 122.551 265.31 122.551 266.498C122.551 267.686 124.153 268.37 126.745 268.37C129.319 268.37 130.939 267.686 130.939 266.498C130.939 265.31 129.319 264.626 126.745 264.626ZM147.083 263.132H148.577V272.582H147.083V263.132ZM147.929 267.272H150.989V268.532H147.929V267.272ZM138.353 273.302H139.811V275.03H147.101V273.302H148.577V279.188H138.353V273.302ZM139.811 276.182V277.982H147.101V276.182H139.811ZM135.995 264.788H145.607V266.012H135.995V264.788ZM140.801 266.75C143.123 266.75 144.689 267.884 144.689 269.612C144.689 271.34 143.123 272.474 140.801 272.474C138.461 272.474 136.895 271.34 136.895 269.612C136.895 267.884 138.461 266.75 140.801 266.75ZM140.801 267.884C139.307 267.884 138.317 268.568 138.317 269.612C138.317 270.656 139.307 271.34 140.801 271.34C142.259 271.34 143.267 270.656 143.267 269.612C143.267 268.568 142.259 267.884 140.801 267.884ZM140.045 262.97H141.539V265.454H140.045V262.97Z" fill="#6F6E6E"/>
<circle cx="205.626" cy="206.15" r="182.5" transform="rotate(-7.61101 205.626 206.15)" stroke="#ECECEC"/>
<circle cx="117.011" cy="75.1473" r="25" transform="rotate(-7.61101 117.011 75.1473)" fill="#6DA4A8"/>
<circle cx="72.9081" cy="118.805" r="25" transform="rotate(-7.61101 72.9081 118.805)" fill="#6DA4A8"/>
<circle cx="48.6073" cy="176.551" r="25" transform="rotate(-7.61101 48.6073 176.551)" fill="#848383"/>
<circle cx="50.7391" cy="242.807" r="25" transform="rotate(-7.61101 50.7391 242.807)" fill="#848383"/>
<circle cx="73.4129" cy="297.169" r="25" transform="rotate(-7.61101 73.4129 297.169)" fill="#C9C9C9"/>
<circle cx="113.718" cy="338.96" r="25" transform="rotate(-7.61101 113.718 338.96)" fill="#C9C9C9"/>
<circle cx="171.792" cy="361.173" r="25" transform="rotate(-7.61101 171.792 361.173)" fill="#ECECEC"/>
<circle cx="239.438" cy="361.882" r="25" transform="rotate(-7.61101 239.438 361.882)" fill="#ECECEC"/>
<circle cx="296.072" cy="337.323" r="25" transform="rotate(-7.61101 296.072 337.323)" fill="#ECECEC"/>
<circle cx="335.484" cy="298.309" r="25" transform="rotate(-7.61101 335.484 298.309)" fill="#ECECEC"/>
<circle cx="359.871" cy="244.891" r="25" transform="rotate(-7.61101 359.871 244.891)" fill="#C9C9C9"/>
<circle cx="360.836" cy="176.096" r="25" transform="rotate(-7.61101 360.836 176.096)" fill="#C9C9C9"/>
<circle cx="339.268" cy="120.328" r="25" transform="rotate(-7.61101 339.268 120.328)" fill="#848383"/>
<circle cx="297.176" cy="78.7244" r="25" transform="rotate(-7.61101 297.176 78.7244)" fill="#6DA4A8"/>
<circle cx="241.469" cy="51.9549" r="25" transform="rotate(-7.61101 241.469 51.9549)" fill="#6DA4A8"/>
<circle cx="174.593" cy="51.7938" r="25" transform="rotate(-7.61101 174.593 51.7938)" fill="#848383"/>
</svg>
