<svg width="25" height="25" viewBox="0 0 25 25" fill="none" xmlns="http://www.w3.org/2000/svg">
<path fill-rule="evenodd" clip-rule="evenodd" d="M12.5 0C19.3925 0 25 5.6075 25 12.5C25 19.3925 19.3925 25 12.5 25C5.6075 25 0 19.3925 0 12.5C0 5.6075 5.6075 0 12.5 0ZM12.5 1.875C6.64125 1.875 1.875 6.64125 1.875 12.5C1.875 18.3587 6.64125 23.125 12.5 23.125C18.3587 23.125 23.125 18.3587 23.125 12.5C23.125 6.64125 18.3587 1.875 12.5 1.875ZM14.9668 7.49963C15.333 7.86713 15.3305 8.46087 14.9643 8.82588L11.2743 12.4996L14.9643 16.1746C15.3305 16.5396 15.333 17.1321 14.9668 17.4996C14.7843 17.6846 14.543 17.7759 14.303 17.7759C14.0642 17.7759 13.8242 17.6846 13.6417 17.5021L9.283 13.1646C9.10675 12.9884 9.008 12.7496 9.008 12.4996C9.008 12.2509 9.10675 12.0121 9.283 11.8359L13.6417 7.49713C14.008 7.13213 14.6005 7.13212 14.9668 7.49963Z" fill="#7E6F6F"/>
</svg>
