<svg width="16" height="17" viewBox="0 0 16 17" fill="none" xmlns="http://www.w3.org/2000/svg">
<path d="M15.5483 1.01008C15.1481 0.598889 14.5559 0.445699 14.0037 0.606951L1.1264 4.35608C0.543759 4.51813 0.13079 4.98335 0.0195441 5.57434C-0.0941024 6.17581 0.30286 6.93934 0.821472 7.25862L4.84792 9.73627C5.26089 9.99024 5.79391 9.92655 6.13565 9.58147L10.7463 4.93658C10.9784 4.69471 11.3626 4.69471 11.5947 4.93658C11.8268 5.1704 11.8268 5.54935 11.5947 5.79122L6.97599 10.4369C6.63345 10.7812 6.56943 11.3174 6.82153 11.7334L9.28174 15.805C9.56985 16.2888 10.0661 16.5629 10.6103 16.5629C10.6743 16.5629 10.7463 16.5629 10.8104 16.5548C11.4346 16.4742 11.9308 16.0469 12.1149 15.4422L15.9325 2.56617C16.1005 2.01791 15.9485 1.42128 15.5483 1.01008Z" fill="#848383"/>
</svg>
