<svg width="74" height="19" viewBox="0 0 74 19" fill="none" xmlns="http://www.w3.org/2000/svg">
<path d="M0.321023 18V0.545454H4.53977V7.92614H4.76989L10.5398 0.545454H15.5085L9.32102 8.33523L15.6193 18H10.5739L6.22727 11.1392L4.53977 13.2699V18H0.321023ZM25.0114 9.33239V12.5455H16.9318V9.33239H25.0114ZM35.343 4.90909V7.97727H27.0845V4.90909H35.343ZM28.8146 1.77273H32.9822V13.8835C32.9822 14.1392 33.022 14.3466 33.1016 14.5057C33.1868 14.6591 33.3089 14.7699 33.468 14.8381C33.6271 14.9006 33.8175 14.9318 34.0391 14.9318C34.1982 14.9318 34.3658 14.9176 34.5419 14.8892C34.7237 14.8551 34.8601 14.8267 34.951 14.804L35.5817 17.8125C35.3828 17.8693 35.1016 17.9403 34.7379 18.0256C34.38 18.1108 33.951 18.1648 33.451 18.1875C32.4737 18.233 31.6357 18.1193 30.9368 17.8466C30.2436 17.5682 29.7124 17.1364 29.343 16.5511C28.9794 15.9659 28.8033 15.2301 28.8146 14.3438V1.77273ZM43.4482 18.2472C42.0788 18.2472 40.897 17.9773 39.9027 17.4375C38.9141 16.892 38.1527 16.1165 37.6186 15.1108C37.0902 14.0994 36.826 12.8977 36.826 11.5057C36.826 10.1534 37.093 8.97159 37.6271 7.96023C38.1612 6.94318 38.9141 6.15341 39.8857 5.59091C40.8572 5.02273 42.0021 4.73864 43.3203 4.73864C44.2521 4.73864 45.1044 4.88352 45.8771 5.17329C46.6499 5.46307 47.3175 5.89205 47.88 6.46023C48.4425 7.02841 48.88 7.73011 49.1925 8.56534C49.505 9.39489 49.6612 10.3466 49.6612 11.4205V12.4602H38.2834V10.0398H45.7834C45.7777 9.59659 45.6726 9.2017 45.468 8.85511C45.2635 8.50852 44.9822 8.23864 44.6243 8.04545C44.272 7.84659 43.8658 7.74716 43.4055 7.74716C42.9396 7.74716 42.522 7.85227 42.1527 8.0625C41.7834 8.26705 41.4908 8.5483 41.2749 8.90625C41.0589 9.25852 40.9453 9.65909 40.9339 10.108V12.571C40.9339 13.1051 41.0391 13.5739 41.2493 13.9773C41.4595 14.375 41.7578 14.6847 42.1442 14.9062C42.5305 15.1278 42.9908 15.2386 43.5249 15.2386C43.8942 15.2386 44.2294 15.1875 44.5305 15.0852C44.8317 14.983 45.0902 14.8324 45.3061 14.6335C45.522 14.4347 45.6839 14.1903 45.7919 13.9006L49.6186 14.0114C49.4595 14.8693 49.1101 15.6165 48.5703 16.2528C48.0362 16.8835 47.3345 17.375 46.4652 17.7273C45.5959 18.0739 44.5902 18.2472 43.4482 18.2472ZM63.2188 8.90625L59.392 9.00852C59.3523 8.7358 59.2443 8.49432 59.0682 8.28409C58.892 8.06818 58.6619 7.90057 58.3778 7.78125C58.0994 7.65625 57.7756 7.59375 57.4062 7.59375C56.9233 7.59375 56.5114 7.69034 56.1705 7.88352C55.8352 8.0767 55.6705 8.33807 55.6761 8.66761C55.6705 8.9233 55.7727 9.14489 55.983 9.33239C56.1989 9.51989 56.5824 9.67045 57.1335 9.78409L59.6562 10.2614C60.9631 10.5114 61.9347 10.9261 62.571 11.5057C63.2131 12.0852 63.5369 12.8523 63.5426 13.8068C63.5369 14.7045 63.2699 15.4858 62.7415 16.1506C62.2188 16.8153 61.5028 17.3324 60.5938 17.7017C59.6847 18.0653 58.6449 18.2472 57.4744 18.2472C55.6051 18.2472 54.1307 17.8636 53.0511 17.0966C51.9773 16.3239 51.3636 15.2898 51.2102 13.9943L55.3267 13.892C55.4176 14.3693 55.6534 14.733 56.0341 14.983C56.4148 15.233 56.9006 15.358 57.4915 15.358C58.0256 15.358 58.4602 15.2585 58.7955 15.0597C59.1307 14.8608 59.3011 14.5966 59.3068 14.267C59.3011 13.9716 59.1705 13.7358 58.9148 13.5597C58.6591 13.3778 58.2585 13.2358 57.7131 13.1335L55.429 12.6989C54.1165 12.4602 53.1392 12.0199 52.4972 11.3778C51.8551 10.7301 51.5369 9.90625 51.5426 8.90625C51.5369 8.03125 51.7699 7.28409 52.2415 6.66477C52.7131 6.03977 53.3835 5.5625 54.2528 5.23295C55.1222 4.90341 56.1477 4.73864 57.3295 4.73864C59.1023 4.73864 60.5 5.1108 61.5227 5.85511C62.5455 6.59375 63.1108 7.6108 63.2188 8.90625ZM72.9837 4.90909V7.97727H64.7251V4.90909H72.9837ZM66.4553 1.77273H70.6229V13.8835C70.6229 14.1392 70.6626 14.3466 70.7422 14.5057C70.8274 14.6591 70.9496 14.7699 71.1087 14.8381C71.2678 14.9006 71.4581 14.9318 71.6797 14.9318C71.8388 14.9318 72.0064 14.9176 72.1825 14.8892C72.3643 14.8551 72.5007 14.8267 72.5916 14.804L73.2223 17.8125C73.0234 17.8693 72.7422 17.9403 72.3786 18.0256C72.0206 18.1108 71.5916 18.1648 71.0916 18.1875C70.1143 18.233 69.2763 18.1193 68.5774 17.8466C67.8842 17.5682 67.353 17.1364 66.9837 16.5511C66.62 15.9659 66.4439 15.2301 66.4553 14.3438V1.77273Z" fill="#C63102"/>
</svg>
