<svg width="292" height="71" viewBox="0 0 292 71" fill="none" xmlns="http://www.w3.org/2000/svg">
<path d="M290.935 17.6364V29.9091H257.901V17.6364H290.935ZM264.821 5.09094H281.491V53.5341C281.491 54.5568 281.651 55.3864 281.969 56.0228C282.31 56.6364 282.798 57.0796 283.435 57.3523C284.071 57.6023 284.832 57.7273 285.719 57.7273C286.355 57.7273 287.025 57.6705 287.73 57.5569C288.457 57.4205 289.003 57.3069 289.366 57.2159L291.889 69.25C291.094 69.4773 289.969 69.7614 288.514 70.1023C287.082 70.4432 285.366 70.6591 283.366 70.75C279.457 70.9318 276.105 70.4773 273.31 69.3864C270.537 68.2728 268.412 66.5455 266.935 64.2046C265.48 61.8637 264.775 58.9205 264.821 55.375V5.09094Z" fill="#98D0D3"/>
<path d="M251.875 33.625L236.568 34.0341C236.409 32.9432 235.977 31.9773 235.273 31.1363C234.568 30.2727 233.648 29.6023 232.511 29.125C231.398 28.625 230.102 28.375 228.625 28.375C226.693 28.375 225.045 28.7613 223.682 29.5341C222.341 30.3068 221.682 31.3523 221.705 32.6704C221.682 33.6932 222.091 34.5795 222.932 35.3295C223.795 36.0795 225.33 36.6818 227.534 37.1363L237.625 39.0454C242.852 40.0454 246.739 41.7045 249.284 44.0227C251.852 46.3409 253.148 49.4091 253.17 53.2273C253.148 56.8182 252.08 59.9432 249.966 62.6023C247.875 65.2613 245.011 67.3295 241.375 68.8068C237.739 70.2613 233.58 70.9886 228.898 70.9886C221.42 70.9886 215.523 69.4545 211.205 66.3863C206.909 63.2954 204.455 59.1591 203.841 53.9773L220.307 53.5682C220.67 55.4773 221.614 56.9318 223.136 57.9318C224.659 58.9318 226.602 59.4318 228.966 59.4318C231.102 59.4318 232.841 59.0341 234.182 58.2386C235.523 57.4432 236.205 56.3864 236.227 55.0682C236.205 53.8864 235.682 52.9432 234.659 52.2386C233.636 51.5114 232.034 50.9432 229.852 50.5341L220.716 48.7954C215.466 47.8409 211.557 46.0795 208.989 43.5113C206.42 40.9204 205.148 37.625 205.17 33.625C205.148 30.125 206.08 27.1363 207.966 24.6591C209.852 22.1591 212.534 20.25 216.011 18.9318C219.489 17.6136 223.591 16.9545 228.318 16.9545C235.409 16.9545 241 18.4432 245.091 21.4204C249.182 24.375 251.443 28.4432 251.875 33.625Z" fill="#98D0D3"/>
<path d="M172.793 70.9886C167.315 70.9886 162.588 69.9091 158.611 67.75C154.656 65.5682 151.611 62.4659 149.474 58.4432C147.361 54.3977 146.304 49.5909 146.304 44.0227C146.304 38.6136 147.372 33.8863 149.509 29.8409C151.645 25.7727 154.656 22.6136 158.543 20.3636C162.429 18.0909 167.009 16.9545 172.281 16.9545C176.009 16.9545 179.418 17.5341 182.509 18.6932C185.599 19.8523 188.27 21.5682 190.52 23.8409C192.77 26.1136 194.52 28.9204 195.77 32.2613C197.02 35.5795 197.645 39.3863 197.645 43.6818V47.8409H152.134V38.1591H182.134C182.111 36.3863 181.69 34.8068 180.872 33.4204C180.054 32.0341 178.929 30.9545 177.497 30.1818C176.088 29.3863 174.463 28.9886 172.622 28.9886C170.759 28.9886 169.088 29.4091 167.611 30.25C166.134 31.0682 164.963 32.1932 164.099 33.625C163.236 35.0341 162.781 36.6363 162.736 38.4318V48.2841C162.736 50.4204 163.156 52.2954 163.997 53.9091C164.838 55.5 166.031 56.7386 167.577 57.625C169.122 58.5113 170.963 58.9545 173.099 58.9545C174.577 58.9545 175.918 58.75 177.122 58.3409C178.327 57.9318 179.361 57.3295 180.224 56.5341C181.088 55.7386 181.736 54.7613 182.168 53.6023L197.474 54.0454C196.838 57.4773 195.44 60.4659 193.281 63.0113C191.145 65.5341 188.338 67.5 184.861 68.9091C181.384 70.2954 177.361 70.9886 172.793 70.9886Z" fill="#98D0D3"/>
<path d="M140.372 17.6364V29.9091H107.338V17.6364H140.372ZM114.258 5.09094H130.929V53.5341C130.929 54.5568 131.088 55.3864 131.406 56.0228C131.747 56.6364 132.236 57.0796 132.872 57.3523C133.508 57.6023 134.27 57.7273 135.156 57.7273C135.793 57.7273 136.463 57.6705 137.168 57.5569C137.895 57.4205 138.44 57.3069 138.804 57.2159L141.327 69.25C140.531 69.4773 139.406 69.7614 137.952 70.1023C136.52 70.4432 134.804 70.6591 132.804 70.75C128.895 70.9318 125.543 70.4773 122.747 69.3864C119.974 68.2728 117.849 66.5455 116.372 64.2046C114.918 61.8637 114.213 58.9205 114.258 55.375V5.09094Z" fill="#98D0D3"/>
<path d="M99.0454 35.3295V48.1818H66.7272V35.3295H99.0454Z" fill="#98D0D3"/>
<path d="M0.284058 70V0.181824H17.1591V29.7046H18.0795L41.1591 0.181824H61.0341L36.2841 31.3409L61.4772 70H41.2954L23.9091 42.5568L17.1591 51.0796V70H0.284058Z" fill="#98D0D3"/>
</svg>
